<svg width="128" height="128" viewBox="0 0 128 128" fill="none" xmlns="http://www.w3.org/2000/svg">
<circle cx="64" cy="64" r="64" fill="#E4E4E7"/>
<path d="M60.2672 68.8732C56.9609 68.8732 53.82 67.9591 50.8444 66.1311C47.9349 64.303 45.5213 61.764 43.6037 58.514C41.6861 55.2641 40.7273 51.5741 40.7273 47.444C40.7273 42.366 41.8514 38.0328 44.0997 34.4443C46.3479 30.8559 49.2574 28.1138 52.8281 26.218C56.3989 24.2545 60.2011 23.2727 64.2347 23.2727C68.7973 23.2727 72.897 24.3222 76.5339 26.4211C80.1708 28.4523 83.0472 31.296 85.1632 34.9521C87.3453 38.6083 88.4364 42.7723 88.4364 47.444C88.4364 52.7928 87.4776 57.6677 85.56 62.0687C83.6423 66.4696 81.0965 70.4304 77.9225 73.9512C74.7485 77.4719 71.2439 80.7218 67.4087 83.7009C64.7687 85.705 62.1287 87.6289 59.4887 89.4725C57.4454 90.8994 54.666 90.5471 53.0027 88.6912L52.5868 88.2271C50.3708 85.7545 51.1419 81.8543 54.0257 80.2086C57.0686 78.4721 59.8434 76.6571 62.3501 74.7636C66.3837 71.6491 69.5247 68.5008 71.7729 65.3186C73.768 62.5754 75.0014 59.9328 75.4732 57.3909C75.5976 56.721 76.1836 56.214 76.8635 56.2589C77.7504 56.3175 78.2958 57.254 77.8697 58.034C76.1204 61.2358 74.0551 63.7655 71.6737 65.6232C68.9626 67.7899 65.1604 68.8732 60.2672 68.8732ZM64.6314 58.9203C68.0699 58.9203 70.9133 57.8708 73.1615 55.7719C75.4098 53.6053 76.5339 50.9986 76.5339 47.9518V45.8191C76.4678 43.6524 75.9057 41.6889 74.8477 39.9286C73.7897 38.1005 72.368 36.6448 70.5827 35.5615C68.8634 34.4105 66.8797 33.835 64.6314 33.835C62.4493 33.835 60.4325 34.3766 58.581 35.4599C56.7956 36.4755 55.374 37.9312 54.316 39.827C53.258 41.7228 52.729 43.9571 52.729 46.53C52.729 49.1028 53.258 51.3371 54.316 53.2329C55.4401 55.061 56.8948 56.4829 58.6802 57.4985C60.4656 58.4463 62.4493 58.9203 64.6314 58.9203Z" fill="#111827"/>
<rect x="40.7273" y="94.2545" width="47.7091" height="10.4727" rx="5" fill="#111827"/>
</svg>
